<svg xmlns="http://www.w3.org/2000/svg" width="980" height="980" viewBox="0 0 980 980">
  <defs>
    <style>
      .cls-1 {
        fill: #317fc6;
        fill-rule: evenodd;
      }
    </style>
  </defs>
  <path id="BA" class="cls-1" d="M280.108,445.357q-66.649,1.007-133.3,2.7,2.591-61.728,9.463-123.426,64.7-5.875,129.423-9.255-4.058,64.965-5.588,129.979h0Zm85.8-175.8c1.238-30-11.569-44.455-38.745-42.59Q226.307,233.657,125.5,249.846C97.823,254.483,81,270.084,76.239,295.819A1261.684,1261.684,0,0,0,66.5,683.882c3.414,25.5,19.975,40.869,48.5,45.329q43.569,6.606,87.138,11.611a54.061,54.061,0,0,0,6.827.358q102.864,11.915,205.664,14.982c28.557,0.7,42.772-14.671,42.673-45.327q-0.088-110.352.466-220.546,0.021-45.5-43.485-45.369-26.662.345-53.33,0.795,1.17-88.131,4.951-176.163h0Zm3.9,264.158q-0.355,66.181.645,132.4-66.209-1.823-132.418-5.96-3.3-64.123-3.494-128.2Q302.179,533.081,369.813,533.71ZM524.785,755.053c20.007-.435,33.068-12.5,39.2-35.754,32.545-128.236,65.089-255.167,88.059-378.528l0.435,0.019c36.95,126.273,70.691,249.788,91.177,367.9,3.678,21.4,15.2,30.858,35.236,28.268a71.972,71.972,0,0,0,7.345-1.359q56.241-7.374,112.482-17.409c14.283-2.586,22.642-10.207,24.738-22.677,0.869-5.25,1.082-9.3.674-12.169C907.674,563.97,864.606,432.62,810.656,293.576q-3.3-8.558-6.656-17.153c-8.554-21.765-22.706-34.31-42.086-36.962a63.138,63.138,0,0,0-7.021-.525c-0.02-.139-0.04-0.277-0.059-0.416q-68.3-8.967-136.6-13.562l0.03,0.438a62.76,62.76,0,0,0-7.11-.9c-19.417-1.247-31.118,9.647-35.526,32.406q-1.735,8.971-3.526,17.96-6.057,31.358-12.722,62.9c-26.718,126-59.659,253.993-89.175,381.614l0.435,0.448q-2.6,4.918-2.581,12.509c0.042,14.895,7.073,22.391,21.094,22.313q17.823,0.339,35.634.41h0ZM702.01,617.475c-1.428-28.464-16.14-42.5-43.446-42.215-29.732.624-44.676,15.509-45.226,44.885q-0.661,44.666-2.157,89.348c-1.072,28.774,12.493,42.48,41.078,40.331,26.276-2.317,41.8-18.09,46.006-46.535Q700.8,660.379,702.01,617.475Z"/>
</svg>
